<?xml version="1.0" standalone="no"?>
<!DOCTYPE svg PUBLIC "-//W3C//DTD SVG 20010904//EN"
 "http://www.w3.org/TR/2001/REC-SVG-20010904/DTD/svg10.dtd">
<svg version="1.0" xmlns="http://www.w3.org/2000/svg"
 width="700.000000pt" height="700.000000pt" viewBox="0 0 700.000000 700.000000"
 preserveAspectRatio="xMidYMid meet">

<g transform="translate(0.000000,700.000000) scale(0.100000,-0.100000)"
fill="#000000" stroke="none">
<path d="M0 3500 l0 -3500 3500 0 3500 0 0 3500 0 3500 -3500 0 -3500 0 0
-3500z m3800 2835 c508 -63 982 -258 1391 -572 141 -107 351 -312 463 -452
342 -424 536 -879 618 -1446 8 -57 13 -186 12 -350 -1 -281 -16 -424 -69 -645
-249 -1035 -1046 -1840 -2076 -2094 -956 -236 -1963 38 -2659 724 -136 134
-207 216 -312 360 -269 370 -441 795 -515 1270 -14 89 -18 176 -18 390 0 286
5 347 50 572 99 494 342 968 690 1348 313 342 726 612 1165 762 155 53 360
102 505 122 66 9 131 18 145 20 76 11 497 5 610 -9z"/>
<path d="M3340 5461 l-65 -6 80 -14 c988 -168 1694 -1069 1614 -2062 -53 -668
-429 -1244 -1021 -1568 -162 -88 -375 -161 -585 -200 l-98 -18 100 -8 c187
-15 468 21 674 86 1031 326 1599 1430 1265 2458 -43 131 -153 358 -229 471
-307 456 -797 766 -1335 844 -126 18 -311 26 -400 17z"/>
<path d="M2895 4901 c-46 -8 -41 -11 67 -41 225 -61 424 -181 599 -360 198
-202 322 -443 375 -725 25 -133 25 -383 1 -508 -55 -276 -178 -515 -367 -710
-184 -191 -383 -309 -634 -377 l-100 -27 55 -6 c96 -12 311 -7 407 8 285 46
539 179 752 394 206 207 321 419 382 704 28 134 30 387 4 522 -106 552 -522
980 -1076 1106 -92 21 -390 34 -465 20z"/>
</g>
</svg>
