<?xml version="1.0" standalone="no"?>
<!DOCTYPE svg PUBLIC "-//W3C//DTD SVG 20010904//EN"
 "http://www.w3.org/TR/2001/REC-SVG-20010904/DTD/svg10.dtd">
<svg version="1.0" xmlns="http://www.w3.org/2000/svg"
 width="116.000000pt" height="118.000000pt" viewBox="0 0 116.000000 118.000000"
 preserveAspectRatio="xMidYMid meet">

<g transform="translate(0.000000,118.000000) scale(0.100000,-0.100000)"
fill="#000000" stroke="none">
<path d="M0 590 l0 -590 580 0 580 0 0 590 0 590 -580 0 -580 0 0 -590z m683
465 c203 -43 360 -212 390 -420 43 -296 -192 -565 -493 -565 -132 0 -248 47
-346 142 -128 123 -182 306 -139 471 48 186 197 333 378 372 81 18 128 18 210
0z"/>
<path d="M627 890 c74 -30 146 -99 184 -176 28 -57 33 -76 32 -142 0 -153 -78
-269 -218 -325 l-40 -16 32 0 c94 -2 221 86 270 187 24 50 28 69 28 147 0 76
-4 99 -26 146 -50 106 -154 182 -265 194 l-49 6 52 -21z"/>
<path d="M525 793 c155 -81 189 -279 70 -398 -24 -25 -55 -47 -69 -51 -44 -11
-30 -26 17 -19 123 21 210 122 210 245 0 63 -18 110 -59 159 -34 41 -116 81
-164 81 l-35 -1 30 -16z"/>
</g>
</svg>
